<?xml version="1.0" encoding="utf-8"?>
<!-- Generator: Adobe Illustrator 16.0.0, SVG Export Plug-In . SVG Version: 6.00 Build 0)  -->
<!DOCTYPE svg PUBLIC "-//W3C//DTD SVG 1.1//EN" "http://www.w3.org/Graphics/SVG/1.1/DTD/svg11.dtd">
<svg version="1.1"
	 id="svg1931" xmlns:inkscape="http://www.inkscape.org/namespaces/inkscape" xmlns:sodipodi="http://inkscape.sourceforge.net/DTD/sodipodi-0.dtd" xmlns:cc="http://web.resource.org/cc/" xmlns:rdf="http://www.w3.org/1999/02/22-rdf-syntax-ns#" xmlns:dc="http://purl.org/dc/elements/1.1/" xmlns:svg="http://www.w3.org/2000/svg" sodipodi:version="0.32" sodipodi:docname="AIGA_Telephone.svg" sodipodi:docbase="/datas/Projs/Cliparts Stocker/tmp/AIGA" inkscape:version="0.41"
	 xmlns="http://www.w3.org/2000/svg" xmlns:xlink="http://www.w3.org/1999/xlink" x="0px" y="0px" width="169.3px"
	 height="475.816px" viewBox="0 0 169.3 475.816" enable-background="new 0 0 169.3 475.816" xml:space="preserve">
<sodipodi:namedview  id="base" borderopacity="1.0" pagecolor="#ffffff" bordercolor="#666666"></sodipodi:namedview>
<g id="g1941">
	<path id="path1943" fill="#FFFFFF" d="M106.182,0C83.803,2.504,2.427,39.697,0.053,231.479
		c-2.5,202.025,83.75,244.525,106.37,244.067V342.11c-18.62,0-22.366-20.273-26.62-62.105c-2.815-27.679-3.636-61.943,0-96
		c2.552-23.897,7-47.224,26.5-47.224L106.182,0z"/>
	<path id="path1945" fill="#FFFFFF" d="M154.428,475.781c8.625,0,14.811-7.026,14.811-14.901l0.062-0.062
		c0,0-0.062-104-0.062-104.062c0-8.25-6.686-14.755-14.811-14.755h-37.8v133.781c0,0,37.707,0.059,37.738,0.027L154.428,475.781z"/>
	<path id="path1947" fill="#FFFFFF" d="M154.428,136.781c8.625,0,14.811-7.026,14.811-14.901l0.062-0.062
		c0,0-0.062-107-0.062-107.062c0-8.25-6.686-14.754-14.811-14.754h-37.8v136.78c0,0,37.707,0.059,37.738,0.027L154.428,136.781z"/>
</g>
</svg>
